<?xml version="1.0" encoding="UTF-8" standalone="no"?>
<!-- Created with Inkscape (http://www.inkscape.org/) -->
<svg
   xmlns:dc="http://purl.org/dc/elements/1.1/"
   xmlns:cc="http://creativecommons.org/ns#"
   xmlns:rdf="http://www.w3.org/1999/02/22-rdf-syntax-ns#"
   xmlns:svg="http://www.w3.org/2000/svg"
   xmlns="http://www.w3.org/2000/svg"
   xmlns:sodipodi="http://sodipodi.sourceforge.net/DTD/sodipodi-0.dtd"
   xmlns:inkscape="http://www.inkscape.org/namespaces/inkscape"
   width="744"
   height="384"
   id="svg1341"
   sodipodi:version="0.32"
   inkscape:version="0.46"
   sodipodi:docbase="/home/johns/graphics/logos/gplv3"
   sodipodi:docname="gpl-v3-logo (copy).svg"
   inkscape:output_extension="org.inkscape.output.svg.inkscape">
  <defs
     id="defs1343">
    <inkscape:perspective
       sodipodi:type="inkscape:persp3d"
       inkscape:vp_x="0 : 526.18109 : 1"
       inkscape:vp_y="0 : 1000 : 0"
       inkscape:vp_z="744.09448 : 526.18109 : 1"
       inkscape:persp3d-origin="372.04724 : 350.78739 : 1"
       id="perspective79" />
  </defs>
  <sodipodi:namedview
     id="base"
     pagecolor="#ffffff"
     bordercolor="#666666"
     borderopacity="1.0"
     inkscape:pageopacity="0.0"
     inkscape:pageshadow="2"
     inkscape:zoom="0.56729519"
     inkscape:cx="372.04724"
     inkscape:cy="526.18109"
     inkscape:document-units="px"
     inkscape:current-layer="layer1"
     inkscape:window-width="1439"
     inkscape:window-height="825"
     inkscape:window-x="1"
     inkscape:window-y="49"
     showgrid="false" />
  <metadata
     id="metadata1346">
    <rdf:RDF>
      <cc:Work
         rdf:about="">
        <dc:format>image/svg+xml</dc:format>
        <dc:type
           rdf:resource="http://purl.org/dc/dcmitype/StillImage" />
      </cc:Work>
    </rdf:RDF>
  </metadata>
  <g
     inkscape:label="Layer 1"
     inkscape:groupmode="layer"
     id="layer1">
    <g
       id="g2486"
       transform="translate(-10.576504,12.339255)">
      <path
         d="M 373.55234,223.69791 C 373.55234,223.69791 373.53528,223.69791 373.53528,223.69791 C 371.93238,223.69791 370.51704,224.22653 369.18697,225.30082 C 368.19794,226.08522 367.51585,227.14246 366.97018,228.31906 C 366.97018,228.31906 367.03839,228.31906 367.03839,228.31906 C 367.58406,227.14246 368.26615,226.08522 369.23813,225.30082 C 370.5682,224.22653 371.98353,223.71496 373.55234,223.69791 z"
         id="path2577"
         style="fill:#bd0000;fill-opacity:1;fill-rule:evenodd;stroke:none;stroke-width:1pt;stroke-linecap:butt;stroke-linejoin:miter" />
      <path
         style="fill:#bd0000;fill-opacity:1;fill-rule:evenodd;stroke:none;stroke-width:1pt;stroke-linecap:butt;stroke-linejoin:miter"
         d="M 107.04146,18.25331 C 107.04148,18.25331 47.731726,277.02073 47.731726,277.02073 C 47.748776,277.02073 47.750916,277.02073 47.785016,277.02073 C 47.785016,277.02073 322.16583,277.02073 322.16583,277.02073 C 322.16584,277.02073 464.87156,277.02073 464.87156,277.02073 C 447.87049,275.5372 434.44829,269.56891 426.4508,258.68961 C 424.96727,256.67742 423.74162,254.50968 422.66733,252.24173 C 421.98526,250.57063 421.34365,248.88458 420.69566,247.17936 C 418.99042,241.75675 418.31049,235.73945 418.61742,229.32782 C 419.47004,211.45708 427.85547,190.1998 442.38396,167.93984 C 457.81621,144.28328 480.18233,119.48895 507.87512,96.4804 C 514.08211,91.32721 520.50015,86.23841 527.21873,81.29326 C 535.52314,75.18347 543.89154,69.55665 552.26418,64.29433 C 583.11163,44.87356 613.88235,31.28421 641.14885,24.38151 C 615.09308,32.88202 585.8208,47.31289 556.90024,66.95875 C 555.86008,67.6613 554.83266,68.3809 553.80952,69.09027 C 537.76339,80.20832 523.22638,92.01613 510.53954,103.94073 C 469.71651,142.3253 448.13908,182.09957 457.9441,205.40142 C 458.64326,207.00432 459.47666,208.53477 460.44865,209.98421 C 470.9869,225.48468 497.10452,228.164 530.20287,219.84252 C 532.45376,219.27977 534.70465,218.64248 537.02375,217.97744 C 547.59613,214.92507 558.82075,210.80271 570.38215,205.72116 C 573.16164,204.49339 575.97102,203.23153 578.80168,201.8844 C 579.09156,201.74799 579.36441,201.61157 579.65429,201.4581 C 616.14602,183.32648 644.19054,162.46352 650.26113,149.92843 C 651.59121,147.20181 651.91093,144.87713 651.00716,143.05426 C 646.67592,134.27238 616.36771,140.20526 579.65429,156.10986 C 576.70426,157.38876 573.72012,158.70478 570.70188,160.10647 C 573.1574,157.82661 575.71311,155.53819 578.32208,153.28558 C 582.48283,149.7012 586.79064,146.19613 591.37768,142.73454 C 598.55668,137.29827 605.81453,132.38383 612.95941,128.027 C 646.41584,102.78633 663.32951,78.90978 659.79971,70.04947 C 659.13466,68.38004 657.71934,67.23158 655.53665,66.53244 C 648.56227,64.31397 635.83282,66.96173 620.36646,73.30004 C 607.61142,78.53168 592.96142,86.29084 578.10894,95.94752 C 578.10894,95.94752 576.08399,97.27972 576.08399,97.27972 C 576.08401,97.27972 575.71097,97.49286 575.71097,97.49286 C 575.71099,97.49288 568.57036,102.23551 568.57036,102.23551 C 568.57034,102.2355 572.67355,94.72188 572.67355,94.72188 C 578.7612,83.57824 588.67705,71.95121 601.02285,61.15034 C 610.07758,53.25345 620.42188,45.81272 631.55698,39.30218 C 635.76889,36.83645 639.97438,34.54632 644.18627,32.4813 C 648.50049,30.37361 652.81682,28.50041 657.02873,26.83271 C 669.26555,21.99341 680.94654,19.05291 691.13315,18.25331 C 690.20548,18.25331 662.51741,18.25331 662.51741,18.25331 C 662.51742,18.25331 566.06582,18.25331 566.06582,18.25331 C 566.06583,18.25331 140.77287,18.25331 140.77287,18.25331 C 140.77287,18.25331 107.04146,18.25331 107.04146,18.25331 z M 413.02217,18.62641 C 411.35108,44.13137 416.2962,81.48852 427.51656,122.96461 C 429.51165,130.34482 431.68368,137.85546 434.071,145.45223 C 435.55456,150.14327 437.08499,154.76104 438.65378,159.30715 C 437.73298,160.66111 436.80574,162.00652 435.93608,163.35705 C 421.93623,184.81213 413.75328,205.08809 411.68997,222.72008 C 405.77283,202.9054 401.31796,181.20178 398.79423,158.1881 C 398.07804,151.594 397.51744,145.07368 397.14229,138.63135 C 394.37982,91.83496 400.48878,49.41415 413.02217,18.62641 z M 133.63227,51.82491 C 133.95161,51.81737 134.26641,51.82491 134.59145,51.82491 C 134.59145,51.82489 197.63136,51.82491 197.63136,51.82491 C 203.01987,51.82489 207.187,52.83482 210.15408,54.86233 C 213.1041,56.90179 214.21039,59.53976 213.51123,62.74898 C 213.51125,62.749 205.9976,96.69354 205.9976,96.69354 C 205.9976,96.69357 183.77644,96.69354 183.77644,96.69354 C 183.77646,96.69357 191.07692,63.65488 191.07692,63.65488 C 191.0769,63.65488 135.44407,63.65488 135.44407,63.65488 C 135.44405,63.65488 115.35442,154.45793 115.35442,154.45793 C 115.35444,154.45793 108.10723,187.33674 108.10723,187.33674 C 108.10723,187.33677 163.6868,187.33674 163.6868,187.33674 C 163.6868,187.33677 163.74009,187.12358 163.74009,187.12358 C 163.74009,187.1236 174.87731,136.81954 174.87731,136.81954 C 174.87731,136.81952 148.76611,136.81954 148.76611,136.81954 C 148.76611,136.81952 151.27065,125.46916 151.27065,125.46916 C 151.27064,125.46914 199.60303,125.46916 199.60303,125.46916 C 199.60303,125.46914 185.7481,188.24264 185.7481,188.24264 C 185.56053,189.13616 185.23228,189.94572 184.78891,190.74717 C 183.64642,192.82754 181.65344,194.60951 178.87393,196.076 C 175.02015,198.10523 170.4075,199.11342 165.019,199.11342 C 165.019,199.11344 102.03238,199.11342 102.03238,199.11342 C 96.643856,199.11344 92.476736,198.10521 89.509656,196.076 C 86.559646,194.0468 85.436306,191.45527 86.152506,188.24264 C 86.152516,188.24262 113.91564,62.74898 113.91564,62.74898 C 114.63182,59.53977 116.86569,56.90177 120.73653,54.86233 C 120.87295,54.78902 121.02642,54.77238 121.16283,54.70247 C 124.69585,52.93277 128.8422,51.93804 133.63227,51.82491 z M 232.42855,51.82491 C 232.42853,51.82489 311.77463,51.82491 311.77463,51.82491 C 317.09494,51.82489 321.27698,52.83482 324.24406,54.86233 C 327.22823,56.90179 328.37072,59.53976 327.65451,62.74898 C 327.65453,62.749 312.8404,129.67893 312.8404,129.67893 C 312.14128,132.86767 309.85413,135.46943 305.96623,137.51229 C 302.07833,139.56195 297.50193,140.603 292.16459,140.603 C 292.16457,140.603 234.50679,140.603 234.50679,140.603 C 234.50679,140.603 223.36956,190.85375 223.36956,190.85375 C 223.36956,190.85377 221.55776,199.11342 221.55776,199.11342 C 221.55777,199.11344 199.81618,199.11342 199.81618,199.11342 C 199.81618,199.11344 201.46811,191.65308 201.46811,191.65308 C 201.46811,191.6531 232.42855,51.82491 232.42855,51.82491 z M 342.04232,51.82491 C 342.04231,51.82489 363.7839,51.82491 363.7839,51.82491 C 363.78392,51.82489 339.16476,163.03732 339.16476,163.03732 C 339.16478,163.03734 333.78266,187.33674 333.78266,187.33674 C 333.78266,187.33677 385.79192,187.33674 385.79192,187.33674 C 386.3376,191.32528 386.97491,195.24256 387.657,199.11342 C 387.65698,199.11344 309.42995,199.11342 309.42995,199.11342 C 309.42997,199.11344 315.61138,171.19041 315.61138,171.19041 C 315.6114,171.19041 342.04232,51.82491 342.04232,51.82491 z M 251.559,63.65488 C 251.55902,63.65488 237.1179,128.77302 237.1179,128.77302 C 237.1179,128.773 291.31198,128.77302 291.31198,128.77302 C 291.31197,128.773 305.69978,63.65488 305.69978,63.65488 C 305.6998,63.65488 251.559,63.65488 251.559,63.65488 z M 205.9976,209.34475 C 206.21027,209.3376 206.42284,209.34475 206.63707,209.34475 C 209.1608,209.34477 211.36479,209.78811 213.13822,210.62366 C 215.03102,211.51037 216.38454,212.82766 217.13484,214.56699 C 217.86809,216.25518 218.05992,218.1714 217.66771,220.26883 C 217.66771,220.26884 217.50786,221.06816 217.50786,221.06816 C 217.50787,221.06813 211.27314,221.06816 211.27314,221.06816 C 211.27312,221.06813 211.32643,220.32211 211.32643,220.32211 C 211.48761,218.85668 211.30594,217.70432 210.74025,216.91168 C 210.66653,216.81227 210.55972,216.68105 210.47381,216.59195 C 210.33313,216.44832 210.12183,216.28415 209.94094,216.16564 C 209.06856,215.61614 207.70391,215.31302 205.94432,215.31302 C 203.60817,215.31304 201.86245,215.72014 200.6688,216.53866 C 199.50924,217.34012 198.776,218.23536 198.53727,219.30964 C 198.29852,220.40098 198.69073,220.97436 198.96358,221.2813 C 198.97208,221.28979 199.00651,221.32507 199.01685,221.33459 C 199.36237,221.62904 200.56221,222.31935 204.29238,223.19967 C 207.6687,224.01818 209.9047,224.75356 211.16656,225.38449 C 213.07643,226.35645 214.41075,227.61619 215.1099,229.16795 C 215.80901,230.70267 215.9625,232.49952 215.5362,234.44348 C 215.1099,236.33627 214.14431,238.082 212.71192,239.71902 C 211.2966,241.35602 209.49545,242.65199 207.32981,243.55575 C 205.18121,244.44247 202.82377,244.94124 200.40235,244.94124 C 197.33295,244.94123 194.86892,244.47657 192.94201,243.55575 C 190.92984,242.60084 189.47827,241.09385 188.62567,239.13284 C 187.80716,237.22298 187.63237,235.05522 188.09278,232.68498 C 188.09278,232.68495 188.25265,231.93893 188.25265,231.93893 C 188.25265,231.93893 194.38079,231.93893 194.38079,231.93893 C 194.38079,231.93893 194.3275,232.68498 194.3275,232.68498 C 194.17402,234.1003 194.32537,235.2428 194.70052,236.09541 C 195.05861,236.91394 195.74071,237.59174 196.83204,238.12037 C 197.99158,238.68307 199.44102,238.97297 201.09509,238.97297 C 202.57864,238.97296 203.9343,238.72358 205.145,238.28024 C 206.33865,237.85394 207.28718,237.2912 207.96927,236.57501 C 208.63429,235.85879 209.02438,235.10213 209.1949,234.28361 C 209.36542,233.55037 209.32492,232.93011 209.03503,232.41853 C 208.71104,231.87289 208.06945,231.389 207.06338,230.97975 C 207.06338,230.97974 201.84112,229.43439 201.84112,229.43439 C 198.9252,228.70116 196.96207,228.00201 195.81957,227.30287 C 194.2678,226.38206 193.14876,225.20118 192.56898,223.78585 C 191.98921,222.38754 191.9274,220.83794 192.30255,219.14977 C 192.69475,217.34224 193.56654,215.6221 194.91366,214.0874 C 196.27786,212.53563 198.03848,211.31855 200.13591,210.51709 C 201.99034,209.82169 203.94187,209.41388 205.9976,209.34475 z M 261.9502,209.45133 C 262.28745,209.42506 262.60456,209.45133 262.96267,209.45133 C 262.96268,209.45133 266.79942,209.87763 266.79942,209.87763 C 266.79941,209.87763 268.07833,209.98421 268.07833,209.98421 C 268.07835,209.98422 266.21325,214.72685 266.21325,214.72685 C 266.21324,214.72687 265.84023,215.47289 265.84023,215.47289 C 265.84023,215.47287 262.90939,215.20645 262.90939,215.20645 C 262.04398,215.20645 261.40826,215.33997 260.99101,215.63275 C 260.9633,215.65368 260.91001,215.71695 260.88443,215.73933 C 260.82853,215.78837 260.73452,215.87391 260.67128,215.95249 C 260.41469,216.289 260.10216,216.89035 259.87196,217.97744 C 259.87194,217.97744 259.76112,218.43784 259.65881,218.83005 C 261.00594,218.83006 264.24158,218.83005 264.24158,218.83005 C 264.24158,218.83006 263.06925,224.10557 263.06925,224.10557 C 263.06925,224.10556 259.71849,224.10557 258.59305,224.10557 C 258.25199,225.64026 254.06355,244.40837 254.06355,244.40837 C 254.06353,244.40835 247.88212,244.40837 247.88212,244.40837 C 247.8821,244.40835 251.90005,226.37352 252.41162,224.10557 C 251.37141,224.10556 248.84131,224.10557 248.84131,224.10557 C 248.84131,224.10556 250.01365,218.83005 250.01365,218.83005 C 250.01366,218.83006 252.55869,218.83005 253.53066,218.83005 C 253.70118,218.09681 253.95696,217.17811 253.95696,217.17811 C 254.33212,215.47289 254.72431,214.24726 255.23587,213.39465 C 255.93504,212.21806 256.92193,211.23328 258.16674,210.51709 C 259.19201,209.92134 260.48872,209.56515 261.9502,209.45133 z M 276.71102,209.71777 C 276.711,209.71776 275.09532,216.98841 274.68607,218.83005 C 275.87971,218.83006 278.68268,218.83005 278.68268,218.83005 C 278.68268,218.83006 277.51035,224.10557 277.51035,224.10557 C 277.51033,224.10556 274.57096,224.10557 273.51373,224.10557 C 273.18972,225.57204 270.63617,236.94803 270.63617,236.94803 C 270.63619,236.94801 270.42301,238.31434 270.42301,238.70654 C 270.42329,238.71959 270.42195,238.75022 270.42301,238.75982 C 270.42385,238.76385 270.42181,238.80979 270.42301,238.81311 C 270.42465,238.8158 270.47416,238.81097 270.47629,238.81311 C 270.47629,238.81309 271.11576,238.8664 271.11576,238.8664 C 271.11576,238.8664 274.04661,238.65325 274.04661,238.65325 C 274.04661,238.65325 273.72688,243.39589 273.72688,243.39589 C 273.7269,243.39589 273.78018,244.2485 273.78018,244.2485 C 273.78016,244.24848 269.5704,244.7281 269.5704,244.7281 C 267.8993,244.72808 266.67365,244.45527 265.78694,243.8755 C 264.84909,243.26158 264.3034,242.44736 264.08172,241.42424 C 264.04761,241.23665 263.97514,240.96382 263.97514,240.57163 C 263.97514,239.80427 264.12009,238.50618 264.6146,236.25529 C 264.61462,236.25531 266.85483,226.22005 267.3323,224.10557 C 266.53087,224.10556 264.40145,224.10557 264.40145,224.10557 C 264.40147,224.10556 265.57378,218.83005 265.57378,218.83005 C 265.57376,218.83006 267.65202,218.83005 268.50464,218.83005 C 268.77745,217.6023 269.73026,213.39465 269.73026,213.39465 C 269.73026,213.39467 274.68607,210.78353 274.68607,210.78353 C 274.68606,210.78355 276.71102,209.71777 276.71102,209.71777 z M 80.344086,209.93092 C 80.344106,209.93092 104.32377,209.93092 104.32377,209.93092 C 104.32377,209.93092 102.99157,215.8992 102.99157,215.8992 C 102.99157,215.89922 86.994456,215.8992 85.459756,215.8992 C 85.186936,217.10993 84.093446,222.01242 83.701246,223.78585 C 85.918046,223.78585 98.888376,223.78585 98.888376,223.78585 C 98.888376,223.78585 97.556166,229.75411 97.556166,229.75411 C 97.556156,229.75411 83.903746,229.75411 82.369036,229.75411 C 82.045046,231.23766 79.118456,244.40837 79.118456,244.40837 C 79.118476,244.40835 72.670596,244.40837 72.670596,244.40837 C 72.670606,244.40835 80.344086,209.93092 80.344086,209.93092 z M 112.47685,218.35046 C 112.71752,218.3209 112.98043,218.35046 113.22289,218.35046 C 114.75759,218.35046 116.17506,218.81726 117.53924,219.78923 C 117.53924,219.78925 118.39184,220.3754 118.39184,220.3754 C 118.39184,220.3754 115.08798,225.8108 115.08798,225.8108 C 115.08798,225.81078 114.18209,225.17134 114.18209,225.17134 C 113.51705,224.74505 112.80086,224.53188 112.05056,224.53188 C 111.40257,224.5319 110.79935,224.76208 110.18547,225.17134 C 109.5375,225.59764 108.99607,226.16249 108.58683,226.92985 C 107.87063,228.24289 107.34627,229.71362 106.98818,231.29948 C 106.98818,231.29949 104.11062,244.40837 104.11062,244.40837 C 104.11062,244.40835 97.929186,244.40837 97.929186,244.40837 C 97.929186,244.40835 103.63103,218.83005 103.63103,218.83005 C 103.63105,218.83006 109.38615,218.83005 109.38615,218.83005 C 109.38615,218.83006 109.18791,219.60593 109.1197,219.89581 C 109.39254,219.6912 109.68029,219.40982 109.91903,219.25635 C 110.745,218.76345 111.6174,218.456 112.47685,218.35046 z M 130.80799,218.35046 C 131.18018,218.32231 131.54658,218.35046 131.92705,218.35046 C 135.40571,218.35046 138.03813,219.56968 139.7604,221.97405 C 140.83468,223.52579 141.41235,225.44417 141.41235,227.72917 C 141.41235,228.99102 141.25674,230.34882 140.93276,231.83236 C 140.93276,231.83236 140.45315,233.69745 140.45315,233.69745 C 140.45315,233.69743 124.82054,233.69745 123.08121,233.69745 C 123.0471,234.05553 123.02792,234.43922 123.02792,234.76321 C 123.02792,236.0933 123.30075,237.13986 123.88053,237.90722 C 124.15603,238.28235 124.47543,238.62021 124.83972,238.8664 C 125.5265,239.31429 126.41306,239.55915 127.45084,239.55915 C 128.71272,239.55913 129.82109,239.2117 130.86128,238.54667 C 131.85033,237.91574 132.79672,236.90753 133.63227,235.50925 C 133.63227,235.50922 140.24,235.50925 140.24,235.50925 C 140.24,235.50922 139.65384,236.78816 139.65384,236.78816 C 138.39197,239.34601 136.63133,241.3411 134.43159,242.75644 C 132.23186,244.17177 129.60368,244.94124 126.7048,244.94124 C 122.93626,244.94123 120.13117,243.72202 118.39184,241.31766 C 116.66958,238.96443 116.29869,235.71173 117.21951,231.6192 C 118.14034,227.45847 119.97771,224.13329 122.6549,221.81418 C 125.05448,219.73356 127.77735,218.5795 130.80799,218.35046 z M 158.57114,218.35046 C 158.94332,218.32231 159.30971,218.35046 159.69018,218.35046 C 163.16885,218.35046 165.80128,219.56968 167.52355,221.97405 C 168.59784,223.52579 169.17548,225.44417 169.17548,227.72917 C 169.17548,228.97397 169.01988,230.31258 168.69588,231.77907 C 168.69588,231.77909 168.2163,233.69745 168.2163,233.69745 C 168.2163,233.69743 152.58367,233.69745 150.84435,233.69745 C 150.82728,233.93615 150.80811,234.15147 150.79106,234.3902 C 150.77827,234.47972 150.79666,234.61561 150.79106,234.70992 C 150.79056,234.7253 150.79106,234.74829 150.79106,234.76321 C 150.79106,235.01901 150.8273,235.27051 150.84435,235.50925 C 150.92958,236.48121 151.18327,237.29334 151.64367,237.90722 C 151.73134,238.02658 151.81375,238.17392 151.91011,238.28024 C 152.69112,239.11578 153.79651,239.55915 155.21398,239.55915 C 156.47586,239.55913 157.60129,239.2117 158.62443,238.54667 C 159.61347,237.91574 160.55985,236.90753 161.39541,235.50925 C 161.39541,235.50922 168.05643,235.50925 168.05643,235.50925 C 168.05642,235.50922 167.41697,236.78816 167.41697,236.78816 C 166.15511,239.34601 164.39447,241.3411 162.19473,242.75644 C 159.99499,244.17177 157.36682,244.94124 154.46795,244.94124 C 150.69942,244.94123 147.89432,243.72202 146.15499,241.31766 C 145.02954,239.78294 144.50305,237.82835 144.50305,235.50925 C 144.50305,235.15113 144.52223,234.76534 144.55634,234.3902 C 144.62457,233.50349 144.76097,232.60824 144.98265,231.6192 C 145.90349,227.47552 147.68756,224.13329 150.36475,221.81418 C 152.76432,219.73356 155.5405,218.5795 158.57114,218.35046 z M 234.18705,218.35046 C 234.56789,218.32117 234.91817,218.35046 235.3061,218.35046 C 238.85297,218.35046 241.5792,219.5505 243.35262,221.92076 C 245.10902,224.29099 245.53531,227.4883 244.63153,231.51262 C 243.9324,234.65025 242.92206,237.18462 241.54083,239.02627 C 240.15957,240.86792 238.39895,242.37276 236.31857,243.39589 C 234.25529,244.41903 232.07044,244.94124 229.87071,244.94124 C 226.25564,244.94123 223.56352,243.70496 221.82419,241.31766 C 220.69873,239.80002 220.11897,237.8454 220.11897,235.50925 C 220.11899,234.24738 220.25753,232.90665 220.59857,231.40606 C 221.62172,226.83605 223.71059,223.35528 226.78,221.12144 C 229.03301,219.4951 231.52114,218.55538 234.18705,218.35046 z M 327.81438,218.35046 C 328.26398,218.32271 328.68031,218.35046 329.14658,218.35046 C 331.29517,218.35046 332.98333,218.56786 334.26225,219.09648 C 335.62643,219.64217 336.59414,220.41377 337.13981,221.33459 C 337.66845,222.20422 337.93914,223.27215 337.93914,224.58516 C 337.93915,224.58518 337.29966,228.4752 337.29966,228.4752 C 337.29969,228.4752 336.12734,233.75074 336.12734,233.75074 C 335.12123,238.2525 334.89958,239.94069 334.84841,240.57163 C 334.79726,241.42425 334.87612,242.25553 335.11486,243.02288 C 335.11488,243.02286 335.54116,244.40837 335.54116,244.40837 C 335.54118,244.40835 329.25316,244.40837 329.25316,244.40837 C 329.25314,244.40835 328.98671,243.60904 328.98671,243.60904 C 328.8844,243.23392 328.91424,242.75644 328.88014,242.33013 C 327.68649,243.06338 326.4907,243.71349 325.41641,244.08864 C 323.83057,244.63433 322.18502,244.94124 320.5139,244.94124 C 317.61504,244.94123 315.46858,244.1867 314.1726,242.70314 C 313.18358,241.61181 312.73383,240.27747 312.73383,238.75982 C 312.73381,238.18005 312.81056,237.57895 312.94697,236.94803 C 313.23685,235.65206 313.76335,234.452 314.59891,233.37771 C 315.41742,232.32045 316.38514,231.45082 317.47647,230.81989 C 318.53373,230.18897 319.71245,229.74134 320.94021,229.43439 C 320.94019,229.43439 324.72367,228.79493 324.72367,228.79493 C 327.63961,228.45387 329.81588,228.02972 331.38469,227.56931 C 331.41881,227.39879 331.49126,227.19629 331.49126,227.19629 C 331.73852,226.09911 331.70758,225.27441 331.43797,224.85161 C 331.41813,224.82434 331.35379,224.76847 331.3314,224.74503 C 331.27384,224.68368 331.18537,224.58724 331.11824,224.53188 C 330.47689,224.02435 329.38318,223.78585 327.92096,223.78585 C 326.26689,223.78585 325.0434,224.05656 324.19078,224.58516 C 323.35523,225.11379 322.58147,226.0815 321.89939,227.46272 C 321.89938,227.46271 315.45152,227.46272 315.45152,227.46272 C 315.45154,227.46271 316.03769,226.18381 316.03769,226.18381 C 316.80502,224.41036 317.71947,222.93963 318.86197,221.81418 C 320.00447,220.68871 321.54769,219.81694 323.33817,219.20307 C 324.71033,218.7501 326.20867,218.44953 327.81438,218.35046 z M 354.83149,218.35046 C 355.07195,218.3209 355.33505,218.35046 355.57752,218.35046 C 357.12925,218.35046 358.58297,218.81726 359.94715,219.78923 C 359.94717,219.78925 360.74647,220.3754 360.74647,220.3754 C 360.74648,220.3754 357.44261,225.8108 357.44261,225.8108 C 357.44262,225.81078 356.53671,225.17134 356.53671,225.17134 C 355.87168,224.74505 355.1917,224.53188 354.45847,224.53188 C 353.81046,224.5319 353.17103,224.76208 352.54008,225.17134 C 351.89211,225.59764 351.42104,226.16249 350.99474,226.92985 C 350.29558,228.24289 349.75418,229.71362 349.39609,231.29948 C 349.39607,231.29949 346.46524,244.40837 346.46524,244.40837 C 346.46526,244.40835 340.28382,244.40837 340.28382,244.40837 C 340.28382,244.40835 345.98564,218.83005 345.98564,218.83005 C 345.98563,218.83006 351.74076,218.83005 351.74076,218.83005 C 351.74076,218.83006 351.59582,219.60593 351.52762,219.89581 C 351.80044,219.6912 352.07115,219.40982 352.32694,219.25635 C 353.13957,218.76345 353.97265,218.456 354.83149,218.35046 z M 373.10932,218.35046 C 373.48117,218.32231 373.84791,218.35046 374.22838,218.35046 C 377.70704,218.35046 380.35651,219.56968 382.06175,221.97405 C 383.1531,223.52579 383.71368,225.44417 383.71368,227.72917 C 383.71366,228.99102 383.50478,230.34882 383.18079,231.83236 C 383.18079,231.83236 382.75449,233.69745 382.75449,233.69745 C 382.75448,233.69743 367.10481,233.69745 365.38255,233.69745 C 365.34844,234.05553 365.27596,234.43922 365.27596,234.76321 C 365.27596,236.0933 365.56585,237.13986 366.12858,237.90722 C 366.21624,238.02658 366.35158,238.17392 366.4483,238.28024 C 366.50432,238.33991 366.60242,238.43797 366.66146,238.49338 C 367.42381,239.1864 368.46127,239.55915 369.75216,239.55915 C 371.01405,239.55913 372.12243,239.2117 373.16261,238.54667 C 374.15166,237.91574 375.081,236.90753 375.9336,235.50925 C 375.93358,235.50922 382.59462,235.50925 382.59462,235.50925 C 382.59462,235.50922 381.95516,236.78816 381.95516,236.78816 C 380.69329,239.34601 378.91561,241.3411 376.73292,242.75644 C 374.51615,244.17177 371.92207,244.94124 369.00613,244.94124 C 365.23762,244.94123 362.48579,243.72202 360.74647,241.31766 C 359.02417,238.96443 358.61707,235.71173 359.52084,231.6192 C 360.44165,227.45847 362.22575,224.13329 364.90295,221.81418 C 367.3177,219.73356 370.08147,218.5795 373.10932,218.35046 z M 279.80172,218.83005 C 279.80174,218.83006 286.14303,218.83005 286.14303,218.83005 C 286.14305,218.83006 286.92529,234.00866 286.94234,234.23032 C 287.19812,233.68676 287.39658,233.22945 287.42195,233.16457 C 287.42196,233.16458 294.40269,218.83005 294.40269,218.83005 C 294.40271,218.83006 300.2111,218.83005 300.2111,218.83005 C 300.21109,218.83006 300.74398,233.82533 300.74398,233.91059 C 300.91453,233.60368 308.68392,218.83005 308.68392,218.83005 C 308.6839,218.83006 314.97193,218.83005 314.97193,218.83005 C 314.97192,218.83006 301.117,244.40837 301.117,244.40837 C 301.11702,244.40835 295.41517,244.40837 295.41517,244.40837 C 295.41517,244.40835 294.86311,230.53853 294.829,229.75411 C 292.47577,234.57991 287.68837,244.40837 287.68837,244.40837 C 287.68837,244.40835 281.82669,244.40837 281.82669,244.40837 C 281.82669,244.40835 279.80172,218.83005 279.80172,218.83005 z M 130.91457,223.67927 C 129.44564,223.74129 128.11162,224.27076 126.86468,225.27791 C 125.87566,226.06232 125.20847,227.13875 124.67985,228.31534 C 124.67985,228.31536 135.17762,228.31534 135.17762,228.31534 C 135.19469,228.12778 135.23091,227.8997 135.23091,227.72917 C 135.23089,226.75722 135.05825,226.00264 134.75132,225.49107 C 134.00104,224.2633 132.88837,223.67927 131.2343,223.67927 C 131.1352,223.67927 131.0125,223.67515 130.91457,223.67927 z M 158.6777,223.67927 C 157.20878,223.74129 155.87475,224.27076 154.6278,225.27791 C 153.63876,226.06232 152.98867,227.13875 152.443,228.31534 C 152.443,228.31536 162.94076,228.31534 162.94076,228.31534 C 162.9578,228.12778 162.99405,227.8997 162.99405,227.72917 C 162.99404,226.75722 162.83845,226.00264 162.51445,225.49107 C 162.36551,225.24168 162.16402,224.99368 161.98157,224.79833 C 161.26958,224.06261 160.28967,223.67927 158.99744,223.67927 C 158.89833,223.67927 158.77564,223.67515 158.6777,223.67927 z M 373.42906,223.67927 C 371.9185,223.7258 370.50781,224.23721 369.21929,225.27791 C 368.24731,226.06232 367.58014,227.13875 367.03447,228.31534 C 367.03449,228.31536 377.47896,228.31534 377.47896,228.31534 C 377.49599,228.12778 377.53225,227.8997 377.53225,227.72917 C 377.53224,226.75722 377.37665,226.00264 377.05265,225.49107 C 376.31941,224.28035 375.18969,223.69633 373.53563,223.67927 C 373.48661,223.6798 373.47779,223.67777 373.42906,223.67927 z M 233.81404,223.78585 C 232.40441,223.95324 231.09368,224.59636 229.87071,225.70422 C 228.40423,227.03431 227.34059,229.12319 226.72672,231.88565 C 226.47093,233.0452 226.35369,234.03636 226.35369,234.92307 C 226.35371,236.13377 226.58602,237.08444 227.04644,237.80063 C 227.16901,237.98447 227.3316,238.17874 227.47275,238.33352 C 228.23079,239.1384 229.28934,239.55915 230.61675,239.55915 C 232.33901,239.55913 233.85667,238.91756 235.3061,237.58748 C 236.77262,236.24034 237.81917,234.13014 238.4501,231.29948 C 239.0299,228.70753 238.94888,226.77212 238.13038,225.54436 C 237.34598,224.3507 236.19922,223.78585 234.61337,223.78585 C 234.34426,223.78585 234.07507,223.75484 233.81404,223.78585 z M 330.10577,233.11128 C 328.65636,233.50346 327.0321,233.83386 324.88353,234.12376 C 323.28064,234.3625 322.13812,234.614 321.47308,234.86979 C 320.89332,235.10851 320.4265,235.4389 320.0343,235.88227 C 319.65914,236.30854 319.40764,236.75619 319.28828,237.26776 C 319.25419,237.4724 319.23498,237.6834 319.23498,237.85393 C 319.23498,237.86777 319.23467,237.89351 319.23498,237.90722 C 319.23677,237.9478 319.23053,238.02792 319.23498,238.06707 C 319.24566,238.14444 319.26715,238.26147 319.28828,238.33352 C 319.2959,238.35725 319.33279,238.41691 319.34155,238.44009 C 319.36021,238.48593 319.3717,238.5562 319.39484,238.59996 C 319.41911,238.64322 319.47274,238.71845 319.50142,238.75982 C 319.54606,238.82119 319.60692,238.91542 319.66129,238.97297 C 320.0876,239.45043 320.93807,239.66572 322.16583,239.66572 C 323.51298,239.66573 324.80893,239.40994 326.00258,238.81311 C 327.1792,238.23334 328.12771,237.36793 328.82685,236.36185 C 329.33844,235.64565 329.74768,234.54365 330.10577,233.11128 z"
         id="path2579" />
      <path
         d="M 373.60344,223.69791 C 373.58638,223.69791 373.56933,223.69791 373.55228,223.69791 C 375.20635,223.71496 376.29769,224.27769 377.03093,225.48839 C 377.35493,225.99996 377.52545,226.76731 377.52545,227.73929 C 377.52545,227.90981 377.49134,228.13149 377.47429,228.31906 C 377.47429,228.31906 377.5425,228.31906 377.5425,228.31906 C 377.5425,228.13149 377.5766,227.90981 377.5766,227.73929 C 377.5766,226.76731 377.42313,225.99996 377.09914,225.48839 C 376.3659,224.26063 375.2575,223.69791 373.60344,223.69791 z"
         id="path2583"
         style="fill:#bd0000;fill-opacity:1;fill-rule:evenodd;stroke:none;stroke-width:1pt;stroke-linecap:butt;stroke-linejoin:miter" />
      <g
         id="g2587"
         style="fill:#bd0000;fill-opacity:1;fill-rule:evenodd;stroke:none;stroke-width:1pt;stroke-linecap:butt;stroke-linejoin:miter"
         transform="matrix(1.705222,0,0,1.705222,26.564476,303.23111)">
        <path
           id="path2589"
           d="M 0,36 C 0,36 7.46,36 7.46,36 C 7.46,36 10.81,22 10.81,22 C 10.81,22 22.93,22 22.93,22 C 22.93,22 24.49,16 24.49,16 C 24.49,16 12.32,16 12.32,16 C 12.32,16 14.34,7 14.34,7 C 14.34,7 27.29,7 27.29,7 C 27.29,7 28.85,0 28.85,0 C 28.85,0 8.4,0 8.4,0 C 8.4,0 0,36 0,36 z"
           style="fill:#bd0000;fill-opacity:1" />
      </g>
      <g
         id="g2591"
         style="fill:#bd0000;fill-opacity:1;fill-rule:evenodd;stroke:none;stroke-width:1pt;stroke-linecap:butt;stroke-linejoin:miter"
         transform="matrix(1.705222,0,0,1.705222,70.814976,320.28331)">
        <path
           id="path2593"
           d="M 7.51,26 C 7.51,26 9.75,16.6 9.75,16.6 C 10.93,11.51 13.42,7 18.13,7 C 18.55,7 18.96,7.21 19.27,7.26 C 19.27,7.26 21.09,0.05 21.09,0.05 C 20.67,0.05 20.21,0 19.69,0 C 16.22,0 13.31,2.44 11.37,5.94 C 11.37,5.94 11.17,5.94 11.17,5.94 C 11.46,4.23 11.71,2.61 11.9,1 C 11.9,1 5.47,1 5.47,1 C 5.1,3.08 4.53,7.15 3.66,10.82 C 3.66,10.82 0,26 0,26 C 0,26 7.51,26 7.51,26 z"
           style="fill:#bd0000;fill-opacity:1" />
      </g>
      <g
         id="g2595"
         style="fill:#bd0000;fill-opacity:1;fill-rule:evenodd;stroke:none;stroke-width:1pt;stroke-linecap:butt;stroke-linejoin:miter"
         transform="matrix(1.705222,0,0,1.705222,105.99378,320.28331)">
        <path
           id="path2597"
           d="M 20.06,19.25 C 17.99,20.26 15.63,20 12.88,20 C 10.71,20 9.03,19.62 8.11,18.88 C 7.63,18.07 7.43,16.81 7.47,16 C 17.6,16.27 23.99,13.93 24.31,7.53 C 24.55,2.7 21.02,0 15.89,0 C 6.73,0 0.73,8.08 0.34,15.86 C 0,22.65 3.52,26 10.78,26 C 13.57,26 17.27,25.68 20.3,24.77 C 20.3,24.77 20.06,19.25 20.06,19.25 z M 17.32,7.53 C 17.2,9.91 14.26,10.05 8.47,10 C 9.1,7.91 11.22,6 14.69,6 C 16.4,6 17.38,6.65 17.32,7.53 z"
           style="fill:#bd0000;fill-opacity:1" />
      </g>
      <g
         id="g2599"
         style="fill:#bd0000;fill-opacity:1;fill-rule:evenodd;stroke:none;stroke-width:1pt;stroke-linecap:butt;stroke-linejoin:miter"
         transform="matrix(1.705222,0,0,1.705222,151.21628,320.28331)">
        <path
           id="path2601"
           d="M 20.05,19.25 C 17.98,20.26 15.62,20 12.88,20 C 10.7,20 9.03,19.62 8.11,18.88 C 7.63,18.07 7.42,16.81 7.46,16 C 17.6,16.27 23.98,13.93 24.31,7.53 C 24.55,2.7 21.02,0 15.89,0 C 6.72,0 0.72,8.08 0.33,15.86 C 0,22.65 3.52,26 10.77,26 C 13.57,26 17.27,25.68 20.3,24.77 C 20.3,24.77 20.05,19.25 20.05,19.25 z M 17.32,7.53 C 17.2,9.91 14.26,10.05 8.46,10 C 9.1,7.91 11.21,6 14.68,6 C 16.39,6 17.38,6.65 17.32,7.53 z"
           style="fill:#bd0000;fill-opacity:1" />
      </g>
      <g
         id="g2603"
         style="fill:#bd0000;fill-opacity:1;fill-rule:evenodd;stroke:none;stroke-width:1pt;stroke-linecap:butt;stroke-linejoin:miter"
         transform="matrix(1.705222,0,0,1.705222,212.45078,320.28331)">
        <path
           id="path2605"
           d="M 22.74,26 C 22.8,22.83 23.56,17.85 24.35,14.58 C 24.35,14.58 27.56,1 27.56,1 C 25.52,0.31 22.34,0 19.28,0 C 6.86,0 0.7,9.2 0.27,17.82 C 0,23.23 2.93,26 7.49,26 C 10.44,26 13.77,24.57 16.36,20.27 C 16.36,20.27 16.47,20.27 16.47,20.27 C 16.27,22.34 16.03,24.35 15.9,26 C 15.9,26 22.74,26 22.74,26 z M 17.61,11.72 C 16.15,18.08 13.17,20 10.95,20 C 8.88,20 7.98,18.53 8.1,16.39 C 8.34,11.56 12.16,6 16.98,6 C 17.76,6 18.37,5.86 18.94,5.72 C 18.94,5.72 17.61,11.72 17.61,11.72 z"
           style="fill:#bd0000;fill-opacity:1" />
      </g>
      <g
         id="g2607"
         style="fill:#bd0000;fill-opacity:1;fill-rule:evenodd;stroke:none;stroke-width:1pt;stroke-linecap:butt;stroke-linejoin:miter"
         transform="matrix(1.705222,0,0,1.705222,259.56608,320.28331)">
        <path
           id="path2609"
           d="M 0,24.82 C 1.44,25.94 4.46,25.95 7.61,26 C 14.34,26.05 19.42,23.11 19.72,17.71 C 19.89,14.11 17.1,11.98 14.37,10.55 C 12.4,9.6 11.41,8.69 11.46,7.63 C 11.53,6.2 12.87,6 14.84,6 C 17.06,6 18.84,6.27 19.86,6.47 C 19.86,6.47 21.88,1.05 21.88,1.05 C 20.73,0.36 18.43,0 15.48,0 C 8.95,0 4.17,3.45 3.9,8.69 C 3.74,11.93 6.07,14.11 8.89,15.59 C 11.17,16.76 11.95,17.66 11.89,18.93 C 11.82,20.21 10.68,20 8.61,20 C 6.18,20 3.49,19.68 2.07,19.46 C 2.07,19.46 0,24.82 0,24.82 z"
           style="fill:#bd0000;fill-opacity:1" />
      </g>
      <g
         id="g2611"
         style="fill:#bd0000;fill-opacity:1;fill-rule:evenodd;stroke:none;stroke-width:1pt;stroke-linecap:butt;stroke-linejoin:miter"
         transform="matrix(1.705222,0,0,1.705222,314.90048,301.52591)">
        <path
           id="path2613"
           d="M 7.45,37 C 7.45,37 13.5,12 13.5,12 C 13.5,12 6.09,12 6.09,12 C 6.09,12 0,37 0,37 C 0,37 7.45,37 7.45,37 z M 10.92,9 C 13.46,9 15.72,6.9 15.86,3.3 C 15.98,0.86 14.4,0 12.07,0 C 9.64,0 7.42,1.58 7.29,3.94 C 7.17,6.32 8.75,9 10.92,9 z"
           style="fill:#bd0000;fill-opacity:1" />
      </g>
      <g
         id="g2615"
         style="fill:#bd0000;fill-opacity:1;fill-rule:evenodd;stroke:none;stroke-width:1pt;stroke-linecap:butt;stroke-linejoin:miter"
         transform="matrix(1.705222,0,0,1.705222,339.26808,321.45991)">
        <path
           id="path2617"
           d="M 7.46,25.31 C 7.46,25.31 10.1,14.05 10.1,14.05 C 11.47,8.32 14.42,6.31 16.85,6.31 C 18.77,6.31 19.33,7.13 19.24,8.32 C 19.19,9.28 19.04,10.29 18.84,11.19 C 18.84,11.19 15.48,25.31 15.48,25.31 C 15.48,25.31 22.94,25.31 22.94,25.31 C 22.94,25.31 26.48,10.5 26.48,10.5 C 26.75,9.22 27.05,7.31 27.11,6.15 C 27.33,1.64 25.08,0 20.94,0 C 17.62,0 14.39,1.54 11.84,4.88 C 11.84,4.88 11.74,4.88 11.74,4.88 C 11.74,4.88 12.42,0.31 12.42,0.31 C 12.42,0.31 5.84,0.31 5.84,0.31 C 5.41,2.45 4.86,5.04 4.08,8.06 C 4.08,8.06 0,25.31 0,25.31 C 0,25.31 7.46,25.31 7.46,25.31 z"
           style="fill:#bd0000;fill-opacity:1" />
      </g>
      <g
         id="g2619"
         style="fill:#bd0000;fill-opacity:1;fill-rule:evenodd;stroke:none;stroke-width:1pt;stroke-linecap:butt;stroke-linejoin:miter"
         transform="matrix(1.705222,0,0,1.705222,406.72668,303.23111)">
        <path
           id="path2621"
           d="M 0,36 C 0,36 7.46,36 7.46,36 C 7.46,36 10.82,22 10.82,22 C 10.82,22 22.93,22 22.93,22 C 22.93,22 24.49,16 24.49,16 C 24.49,16 12.32,16 12.32,16 C 12.32,16 14.34,7 14.34,7 C 14.34,7 27.29,7 27.29,7 C 27.29,7 28.85,0 28.85,0 C 28.85,0 8.4,0 8.4,0 C 8.4,0 0,36 0,36 z"
           style="fill:#bd0000;fill-opacity:1" />
      </g>
      <g
         id="g2623"
         style="fill:#bd0000;fill-opacity:1;fill-rule:evenodd;stroke:none;stroke-width:1pt;stroke-linecap:butt;stroke-linejoin:miter"
         transform="matrix(1.705222,0,0,1.705222,450.97718,320.28331)">
        <path
           id="path2625"
           d="M 7.51,26 C 7.51,26 9.75,16.6 9.75,16.6 C 10.93,11.51 13.42,7 18.13,7 C 18.55,7 18.96,7.21 19.27,7.26 C 19.27,7.26 21.09,0.05 21.09,0.05 C 20.67,0.05 20.21,0 19.69,0 C 16.22,0 13.31,2.44 11.37,5.94 C 11.37,5.94 11.17,5.94 11.17,5.94 C 11.46,4.23 11.71,2.61 11.9,1 C 11.9,1 5.47,1 5.47,1 C 5.11,3.08 4.53,7.15 3.66,10.82 C 3.66,10.82 0,26 0,26 C 0,26 7.51,26 7.51,26 z"
           style="fill:#bd0000;fill-opacity:1" />
      </g>
      <g
         id="g2627"
         style="fill:#bd0000;fill-opacity:1;fill-rule:evenodd;stroke:none;stroke-width:1pt;stroke-linecap:butt;stroke-linejoin:miter"
         transform="matrix(1.705222,0,0,1.705222,486.15598,320.28331)">
        <path
           id="path2629"
           d="M 20.06,19.25 C 17.99,20.26 15.63,20 12.88,20 C 10.71,20 9.03,19.62 8.11,18.88 C 7.63,18.07 7.43,16.81 7.47,16 C 17.6,16.27 23.99,13.93 24.31,7.53 C 24.55,2.7 21.02,0 15.89,0 C 6.73,0 0.73,8.08 0.34,15.86 C 0,22.65 3.53,26 10.78,26 C 13.57,26 17.28,25.68 20.3,24.77 C 20.3,24.77 20.06,19.25 20.06,19.25 z M 17.32,7.53 C 17.2,9.91 14.26,10.05 8.47,10 C 9.1,7.91 11.22,6 14.69,6 C 16.4,6 17.38,6.65 17.32,7.53 z"
           style="fill:#bd0000;fill-opacity:1" />
      </g>
      <g
         id="g2631"
         style="fill:#bd0000;fill-opacity:1;fill-rule:evenodd;stroke:none;stroke-width:1pt;stroke-linecap:butt;stroke-linejoin:miter"
         transform="matrix(1.705222,0,0,1.705222,531.37838,320.28331)">
        <path
           id="path2633"
           d="M 20.05,19.25 C 17.98,20.26 15.62,20 12.88,20 C 10.7,20 9.03,19.62 8.11,18.88 C 7.63,18.07 7.42,16.81 7.46,16 C 17.6,16.27 23.98,13.93 24.31,7.53 C 24.55,2.7 21.02,0 15.89,0 C 6.72,0 0.72,8.08 0.33,15.86 C 0,22.65 3.52,26 10.77,26 C 13.57,26 17.27,25.68 20.3,24.77 C 20.3,24.77 20.05,19.25 20.05,19.25 z M 17.32,7.53 C 17.2,9.91 14.26,10.05 8.46,10 C 9.1,7.91 11.21,6 14.68,6 C 16.39,6 17.38,6.65 17.32,7.53 z"
           style="fill:#bd0000;fill-opacity:1" />
      </g>
      <g
         id="g2635"
         style="fill:#bd0000;fill-opacity:1;fill-rule:evenodd;stroke:none;stroke-width:1pt;stroke-linecap:butt;stroke-linejoin:miter"
         transform="matrix(1.705222,0,0,1.705222,576.36218,301.52591)">
        <path
           id="path2637"
           d="M 23.31,0 C 23.31,0 20.5,11.36 20.5,11.36 C 19.48,10.94 18.15,11 17.11,11 C 7.53,11 0.75,19.2 0.3,28.08 C 0,34.34 3.34,37 7.64,37 C 10.65,37 13.82,35.67 16.22,32.23 C 16.22,32.23 16.32,32.23 16.32,32.23 C 16.32,32.23 15.75,37 15.75,37 C 15.75,37 22.53,37 22.53,37 C 22.84,34 23.49,30.43 24.22,27.17 C 24.22,27.17 30.71,0 30.71,0 C 30.71,0 23.31,0 23.31,0 z M 17.47,24.42 C 16.3,29.35 13.54,31 11.36,31 C 9.19,31 7.98,29.49 8.13,26.8 C 8.38,21.82 11.8,17 16.25,17 C 17.5,17 18.57,17.19 19.16,17.47 C 19.16,17.47 17.47,24.42 17.47,24.42 z"
           style="fill:#bd0000;fill-opacity:1" />
      </g>
      <g
         id="g2639"
         style="fill:#bd0000;fill-opacity:1;fill-rule:evenodd;stroke:none;stroke-width:1pt;stroke-linecap:butt;stroke-linejoin:miter"
         transform="matrix(1.705222,0,0,1.705222,627.02428,320.28331)">
        <path
           id="path2641"
           d="M 10.61,26 C 19.31,26 26.02,19.41 26.49,10.44 C 26.78,4.5 23.08,0 16.25,0 C 7.23,0 0.76,7.3 0.31,16.12 C 0,22.54 4.14,26 10.61,26 z M 11.78,20 C 9.24,20 7.84,18.38 7.99,15.96 C 8.19,11.93 10.68,6 14.97,6 C 17.93,6 18.84,8.27 18.72,10.5 C 18.5,14.9 15.82,20 11.78,20 z"
           style="fill:#bd0000;fill-opacity:1" />
      </g>
      <g
         id="g2643"
         style="fill:#bd0000;fill-opacity:1;fill-rule:evenodd;stroke:none;stroke-width:1pt;stroke-linecap:butt;stroke-linejoin:miter"
         transform="matrix(1.705222,0,0,1.705222,675.72548,320.28331)">
        <path
           id="path2645"
           d="M 7.2,26 C 7.2,26 9.9,14.58 9.9,14.58 C 11.03,9.49 13.85,6 16.38,6 C 18.2,6 18.7,7.33 18.61,9.07 C 18.56,9.97 18.36,10.98 18.15,11.98 C 18.15,11.98 14.81,26 14.81,26 C 14.81,26 22.01,26 22.01,26 C 22.01,26 24.71,14.53 24.71,14.53 C 25.95,9.28 28.61,6 31.09,6 C 32.8,6 33.51,7.22 33.43,8.96 C 33.38,9.97 33.17,11.08 32.91,12.09 C 32.91,12.09 29.67,26 29.67,26 C 29.67,26 36.92,26 36.92,26 C 36.92,26 40.41,11.19 40.41,11.19 C 40.68,9.86 40.99,7.79 41.04,6.73 C 41.26,2.33 39.11,0 35.23,0 C 31.91,0 28.68,1.5 26.23,4.66 C 26.14,2.38 24.51,0 20.47,0 C 17.2,0 14.08,1.48 11.58,4.83 C 11.58,4.83 11.48,4.83 11.48,4.83 C 11.48,4.83 12.15,1 12.15,1 C 12.15,1 5.73,1 5.73,1 C 5.31,3.14 4.8,5.73 4.02,8.75 C 4.02,8.75 0,26 0,26 C 0,26 7.2,26 7.2,26 z"
           style="fill:#bd0000;fill-opacity:1" />
      </g>
      <path
         style="fill:#bd0000;fill-opacity:0;fill-rule:evenodd;stroke:#bd0000;stroke-width:8.52610779;stroke-linecap:butt;stroke-linejoin:miter;stroke-miterlimit:4;stroke-opacity:1"
         id="path2647"
         d="M 417.07944,250.20635 C 417.77165,251.98597 418.46389,253.76268 419.18494,255.50045 C 420.2954,257.86122 421.5789,260.12105 423.12198,262.2309 C 431.45755,273.56176 445.41744,279.76585 463.14129,281.31037 C 463.14129,281.31037 482.20635,281.31037 482.20635,281.31037 C 488.23446,280.84023 494.55102,279.96341 501.09833,278.68278 C 512.39026,276.47488 524.36,273.08298 536.79121,268.55034 C 546.20836,265.11659 555.88511,261.0541 565.70606,256.33256 C 587.09294,246.08041 609.18647,232.85747 630.86181,216.90021 C 638.00038,211.64939 644.85053,206.26158 651.42668,200.78291 C 657.45481,195.76715 663.23778,190.67349 668.76114,185.52364 C 684.17759,170.66675 695.81564,155.57767 702.40621,142.32874 C 709.27073,128.53184 710.64082,116.73516 705.01649,109.30381 C 701.56976,104.74235 695.80122,102.29792 688.37421,101.72251 C 721.83174,76.6178 741.32949,46.16418 734.33517,26.96361 C 732.11421,20.83591 727.22536,16.26441 720.21659,13.73631 C 717.10162,12.61581 713.59716,11.90621 709.77549,11.58321 C 709.77549,11.58321 699.47866,11.58321 699.47866,11.58321 C 685.10058,12.62011 664.19202,17.76851 646.45376,26.46171"
         sodipodi:nodetypes="cccccssccccscccsccc" />
    </g>
  </g>
</svg>
